<?xml version="1.0" encoding="utf-8"?>
<!-- Generator: Adobe Illustrator 17.0.0, SVG Export Plug-In . SVG Version: 6.00 Build 0)  -->
<!DOCTYPE svg PUBLIC "-//W3C//DTD SVG 1.1//EN" "http://www.w3.org/Graphics/SVG/1.1/DTD/svg11.dtd">
<svg version="1.1" id="Layer_1" xmlns="http://www.w3.org/2000/svg" xmlns:xlink="http://www.w3.org/1999/xlink" x="0px" y="0px"
	 width="126.957px" height="48.553px" viewBox="0 0 126.957 48.553" enable-background="new 0 0 126.957 48.553"
	 xml:space="preserve">
<path d="M14.705,47.978v-9.005c-0.867,1.394-2.713,2.298-5.162,2.298c-5.275,0-9.043-4.182-9.043-9.758
	c0-5.426,3.504-9.683,8.892-9.683c3.24,0,4.898,1.545,5.426,2.6v-2.148h4.785v25.696H14.705z M10.146,36.788
	c2.562,0,4.597-1.959,4.597-5.275c0-3.316-2.034-5.2-4.597-5.2c-2.562,0-4.597,1.884-4.597,5.2
	C5.549,34.828,7.584,36.788,10.146,36.788z"/>
<path d="M33.543,27.255c-0.565-0.113-1.055-0.151-1.507-0.151c-2.562,0-4.785,1.243-4.785,5.237v8.478H22.24V22.282h4.86v2.751
	c1.13-2.449,3.692-2.901,5.275-2.901c0.414,0,0.791,0.038,1.168,0.075V27.255z"/>
<path d="M35.879,40.819V22.282h5.011v18.537H35.879z"/>
<path d="M62.291,31.55c0,5.69-4.182,9.834-9.721,9.834c-5.538,0-9.72-4.144-9.72-9.834c0-5.727,4.182-9.834,9.72-9.834
	C58.109,21.717,62.291,25.823,62.291,31.55z M57.28,31.55c0-3.504-2.261-5.275-4.71-5.275s-4.71,1.771-4.71,5.275
	c0,3.467,2.26,5.275,4.71,5.275S57.28,35.054,57.28,31.55z"/>
<path d="M76.27,38.822c-1.017,1.733-3.165,2.487-5.124,2.487c-4.484,0-7.046-3.278-7.046-7.31V22.282h5.011v10.7
	c0,2.072,1.055,3.73,3.391,3.73c2.223,0,3.504-1.507,3.504-3.655V22.282h5.011v15.184c0,1.432,0.113,2.713,0.189,3.353h-4.785
	C76.345,40.443,76.27,39.576,76.27,38.822z"/>
<path d="M87.159,34.715c0.113,1.469,1.206,2.826,3.392,2.826c1.658,0,2.449-0.867,2.449-1.846c0-0.829-0.565-1.507-1.997-1.809
	l-2.449-0.565c-3.579-0.791-5.2-2.939-5.2-5.539c0-3.316,2.939-6.066,6.933-6.066c5.275,0,7.046,3.353,7.272,5.35l-4.182,0.942
	c-0.151-1.093-0.942-2.487-3.052-2.487c-1.319,0-2.374,0.791-2.374,1.846c0,0.904,0.678,1.469,1.695,1.658l2.638,0.565
	c3.655,0.753,5.501,2.976,5.501,5.689c0,3.014-2.336,6.104-7.197,6.104c-5.576,0-7.498-3.617-7.724-5.727L87.159,34.715z"/>
<path d="M99.631,40.819V13.54h5.011v27.279H99.631z"/>
<path d="M109.502,48.129l4.37-9.646l-7.875-16.201h5.614l4.936,10.851l4.559-10.851h5.351l-11.642,25.847H109.502z"/>
<circle fill="#E0AB2D" cx="38.562" cy="3.732" r="3.308"/>
</svg>
